<?xml version="1.0" encoding="UTF-8" standalone="no"?>
<!-- Created with Inkscape (http://www.inkscape.org/) -->

<svg
   width="210mm"
   height="297mm"
   viewBox="0 0 210 297"
   version="1.1"
   id="svg5"
   xml:space="preserve"
   sodipodi:docname="favicon.svg"
   inkscape:version="1.2.2 (1:1.2.2+202212051552+b0a8486541)"
   xmlns:inkscape="http://www.inkscape.org/namespaces/inkscape"
   xmlns:sodipodi="http://sodipodi.sourceforge.net/DTD/sodipodi-0.dtd"
   xmlns="http://www.w3.org/2000/svg"
   xmlns:svg="http://www.w3.org/2000/svg"><sodipodi:namedview
     id="namedview7"
     pagecolor="#ffffff"
     bordercolor="#000000"
     borderopacity="0.25"
     inkscape:showpageshadow="2"
     inkscape:pageopacity="0.0"
     inkscape:pagecheckerboard="0"
     inkscape:deskcolor="#d1d1d1"
     inkscape:document-units="mm"
     showgrid="false"
     inkscape:zoom="0.73824297"
     inkscape:cx="492.38532"
     inkscape:cy="652.22429"
     inkscape:window-width="1920"
     inkscape:window-height="1016"
     inkscape:window-x="0"
     inkscape:window-y="0"
     inkscape:window-maximized="1"
     inkscape:current-layer="layer1"
     showguides="true"><sodipodi:guide
       position="128.30577,100.24059"
       orientation="0,-1"
       id="guide1304"
       inkscape:locked="false" /></sodipodi:namedview><defs
     id="defs2" /><g
     inkscape:label="Layer 1"
     inkscape:groupmode="layer"
     id="layer1"><path
       style="fill:#000000;stroke-width:0.375914"
       d="m 73.496264,204.11038 c -15.560219,-1.14843 -23.539837,-2.99281 -35.163785,-8.12759 -6.59847,-2.91482 -10.699381,-6.55992 -14.317471,-12.72605 -1.886407,-3.21493 -3.279791,-7.05011 -4.709527,-12.96264 -2.812146,-11.62931 -2.630956,-19.51314 0.76871,-33.44747 1.540513,-6.31416 3.215637,-11.3092 5.601345,-16.70263 0.970389,-2.19382 1.764117,-4.04222 1.76384,-4.10761 -2.78e-4,-0.0653 -1.263564,-1.53105 -2.807304,-3.25703 -4.796063,-5.3623 -7.492703,-10.55329 -8.981799,-17.289853 -0.786825,-3.559544 -0.783292,-11.150292 0.0068,-14.72618 1.803835,-8.163456 6.254246,-15.729974 12.012373,-20.423236 9.374355,-7.640754 19.66481,-8.941765 29.022623,-3.669365 5.781209,3.25727 12.042289,10.36618 14.312643,16.250737 0.346848,0.899028 0.754422,1.333427 1.251069,1.333427 0.405139,0 3.613363,-0.611632 7.129377,-1.359202 8.92569,-1.897701 11.58703,-2.154736 22.348312,-2.15839 11.34121,-0.0052 18.79007,0.514477 25.38161,1.766163 2.69467,0.511714 5.00179,0.807046 5.12691,0.656308 0.12504,-0.150789 0.42126,-0.930854 0.65807,-1.733551 1.32983,-4.507476 7.47982,-11.981291 12.5976,-15.309378 10.83468,-7.045742 25.94531,-6.269109 34.6383,1.780269 9.5769,8.867778 13.87961,24.298857 10.39686,37.286889 -1.59979,5.966062 -4.08224,10.215712 -9.59788,16.430342 l -3.12477,3.52077 0.99004,1.46008 c 1.69886,2.50539 3.84772,7.3672 5.16035,11.67552 1.54669,5.07648 3.61923,14.99321 4.44945,21.28989 0.75793,5.74835 0.84298,16.03813 0.16647,20.14671 -1.29934,7.89177 -5.3397,16.52863 -9.73356,20.80686 -3.6753,3.57861 -10.82962,7.55714 -16.47005,9.15902 -3.36748,0.95638 -14.08716,2.92261 -18.07633,3.31563 -1.98673,0.19581 -4.83141,0.533 -6.32145,0.74951 -3.52178,0.51172 -58.303972,0.82779 -64.478948,0.37205 z m 61.589156,-9.37228 c 11.20876,-0.95964 22.31052,-2.82271 27.09196,-4.54651 2.88495,-1.04006 7.51742,-3.62 9.98963,-5.56343 2.86422,-2.25163 6.13439,-8.18557 7.58852,-13.76989 0.53858,-2.06826 0.65494,-3.9582 0.64892,-10.53974 -0.008,-8.89098 -0.49186,-12.80645 -2.83533,-22.94807 -2.05313,-8.88528 -4.10184,-13.77212 -7.66458,-18.28248 -0.66206,-0.83815 -1.38369,-2.11442 -1.60365,-2.83617 -0.70493,-2.31319 0.0417,-3.67 5.26335,-9.56527 2.63973,-2.98024 5.46885,-6.52344 6.28691,-7.873779 4.37649,-7.223879 4.56896,-17.132621 0.50577,-26.038158 -1.73735,-3.807856 -5.77871,-8.508859 -8.60194,-10.005964 -4.0282,-2.136072 -10.84699,-2.83843 -15.65041,-1.612034 -7.64716,1.952434 -15.27278,9.775464 -15.81383,16.223207 -0.19995,2.381476 -0.56486,3.451293 -1.56839,4.596499 -1.47465,1.682903 -1.91588,1.667475 -13.20226,-0.461498 -8.41257,-1.586874 -25.2391,-2.26973 -34.323712,-1.392981 -4.36187,0.420975 -17.842774,3.236026 -18.199195,3.800325 -0.566371,0.896683 -2.131058,1.677481 -3.361605,1.677481 -1.849842,0 -3.510358,-1.64669 -4.599227,-4.560927 C 63.09258,75.836381 61.279665,72.609694 58.714699,69.787164 54.393755,65.032345 50.74162,63.000305 45.844462,62.626192 38.186094,62.04116 29.543406,68.374865 25.654737,77.421998 c -1.564125,3.638992 -2.188352,6.696999 -2.188352,10.720437 0,8.194037 3.100983,14.748585 9.877614,20.878335 4.646811,4.20324 4.687502,4.91121 0.768645,13.37233 -2.69392,5.81636 -4.210209,10.11511 -5.745237,16.28804 -3.148475,12.66114 -3.342554,19.09982 -0.887713,29.45027 2.118087,8.9306 5.823796,14.966 10.989344,17.89808 5.197664,2.95034 13.720977,5.8942 21.300623,7.35699 3.423502,0.66071 9.538953,1.22016 19.145007,1.75147 7.14457,0.39516 50.488852,0.0866 56.170752,-0.39985 z m -36.912562,-35.797 c -2.76036,-0.95837 -4.21666,-3.84203 -3.55202,-7.03334 0.64394,-3.09182 3.70407,-4.69819 8.455112,-4.43836 2.01699,0.11015 2.96739,0.35373 3.70282,0.94835 1.72518,1.39491 2.35852,2.6434 2.35852,4.64923 0,2.22908 -1.30521,4.28481 -3.45455,5.44102 -1.81091,0.97414 -5.36176,1.17893 -7.509882,0.4331 z m -25.073932,-1.90864 c -1.062023,-1.15013 -1.227335,-1.58675 -1.221917,-3.22736 0.01147,-3.5629 0.723868,-9.28453 1.267359,-10.18281 1.857885,-3.07075 5.71277,-2.88054 7.25928,0.3582 0.5386,1.12798 0.55572,1.76362 0.16497,6.12779 -0.59996,6.70112 -1.47685,8.25427 -4.660271,8.25427 -1.316663,0 -1.786771,-0.22254 -2.809433,-1.33009 z m 54.435264,-0.0677 c -1.42566,-1.29914 -1.87409,-3.17567 -1.95578,-8.18408 -0.0733,-4.49611 0.23836,-5.26009 2.58435,-6.33497 1.532,-0.70189 3.28181,-0.15006 4.50131,1.4194 0.70863,0.91202 0.92872,1.86217 1.29776,5.60273 0.38073,3.85907 0.36774,4.70314 -0.0906,5.89119 -1.01164,2.62206 -4.30576,3.45674 -6.33703,1.60573 z"
       id="path75202" /><path
       style="fill:#ffcc00;fill-opacity:0.997961;stroke-width:0.463077"
       d="m 74.848846,194.68489 c -14.308849,-1.16948 -17.978991,-1.81853 -26.141709,-4.62309 -7.254478,-2.49252 -11.152614,-4.56824 -13.832652,-7.3658 -2.903078,-3.03037 -5.546813,-8.44645 -7.172869,-14.69466 -1.08858,-4.18292 -1.222196,-5.53736 -1.227155,-12.43918 -0.0046,-6.38111 0.173933,-8.53054 1.013629,-12.2045 1.697316,-7.42635 3.688752,-13.52335 6.590984,-20.179 1.518509,-3.48236 2.858131,-7.21772 2.976938,-8.30078 0.213254,-1.94406 0.160245,-2.02909 -4.150082,-6.65733 -6.888026,-7.39605 -8.994091,-12.090824 -8.994091,-20.049361 0,-9.937504 5.294122,-19.057026 13.476606,-23.214483 7.004458,-3.558907 13.516246,-2.422552 19.434019,3.391373 3.284073,3.226446 5.247725,6.212365 7.166447,10.897263 1.961699,4.789837 3.362121,6.375689 5.630202,6.375689 0.947345,0 2.155486,-0.382489 2.769743,-0.876886 1.1197,-0.901206 4.363957,-1.773657 12.738752,-3.42574 9.99172,-1.971043 28.595072,-1.602597 42.439372,0.840528 3.61784,0.638447 7.50308,1.097715 8.63388,1.020594 2.57504,-0.175612 3.54659,-1.385785 4.24275,-5.284779 0.70067,-3.92423 2.39823,-7.086981 5.45151,-10.156817 5.10316,-5.130832 10.60103,-7.327639 17.12271,-6.841794 6.42901,0.478933 10.03296,2.306604 13.81673,7.006873 4.30406,5.346607 6.27701,11.781333 5.93625,19.360932 -0.29248,6.505698 -1.55836,9.566672 -6.4238,15.533198 -8.85246,10.85585 -8.30401,10.05455 -8.30401,12.13224 0,1.55361 0.42908,2.5461 2.20833,5.10808 3.79114,5.459 5.8217,11.08428 8.3332,23.0855 0.95865,4.58092 1.22553,7.38604 1.42916,15.0209 0.28477,10.67744 -0.0509,12.86203 -2.91705,18.98498 -5.10222,10.89985 -17.57401,15.79629 -44.29557,17.39054 -6.86752,0.40971 -53.340242,0.54243 -57.952224,0.16551 z m 31.438904,-36.23498 c 1.81355,-1.09199 3.05207,-3.36697 3.05207,-5.60623 0,-3.85394 -3.56095,-6.1455 -8.60498,-5.53753 -4.417102,0.53242 -6.470542,2.48215 -6.470542,6.14368 0,4.2839 3.10854,6.56562 8.223012,6.03582 1.38193,-0.14317 3.09212,-0.60924 3.80044,-1.03574 z m -27.189322,-1.23345 c 1.53281,-2.00227 2.47437,-11.151 1.39754,-13.57939 -0.65137,-1.46894 -3.18177,-2.74995 -4.672589,-2.36548 -2.73418,0.70511 -3.943956,4.08098 -3.943956,11.0055 0,4.81705 0.865517,6.10148 4.111505,6.10148 1.8158,0 2.37914,-0.21067 3.1075,-1.16211 z m 52.790652,0.51576 c 2.38705,-1.02483 2.84677,-2.7673 2.23195,-8.4597 -0.47495,-4.39732 -0.61404,-4.83472 -1.91825,-6.03209 -1.91698,-1.75995 -3.79281,-1.71251 -5.59724,0.14156 l -1.39419,1.43255 0.22436,4.78705 c 0.25552,5.45239 0.88336,7.24054 2.85166,8.12172 1.75034,0.78361 1.79694,0.78372 3.60171,0.009 z"
       id="path3616" /></g></svg>
