<?xml version="1.0" encoding="UTF-8" standalone="no"?>
<!-- Created with Inkscape (http://www.inkscape.org/) -->

<svg
   width="210mm"
   height="297mm"
   viewBox="0 0 210 297"
   version="1.1"
   id="svg5"
   xml:space="preserve"
   inkscape:version="1.2.2 (1:1.2.2+202212051552+b0a8486541)"
   sodipodi:docname="logoPlain.svg"
   xmlns:inkscape="http://www.inkscape.org/namespaces/inkscape"
   xmlns:sodipodi="http://sodipodi.sourceforge.net/DTD/sodipodi-0.dtd"
   xmlns="http://www.w3.org/2000/svg"
   xmlns:svg="http://www.w3.org/2000/svg"><sodipodi:namedview
     id="namedview7"
     pagecolor="#ffffff"
     bordercolor="#000000"
     borderopacity="0.25"
     inkscape:showpageshadow="2"
     inkscape:pageopacity="0.0"
     inkscape:pagecheckerboard="0"
     inkscape:deskcolor="#d1d1d1"
     inkscape:document-units="mm"
     showgrid="false"
     inkscape:zoom="2.4429232"
     inkscape:cx="413.64379"
     inkscape:cy="761.17826"
     inkscape:window-width="1920"
     inkscape:window-height="1016"
     inkscape:window-x="0"
     inkscape:window-y="0"
     inkscape:window-maximized="1"
     inkscape:current-layer="layer1" /><defs
     id="defs2"><rect
       x="476.20411"
       y="637.61059"
       width="3.4911838"
       height="22.01324"
       id="rect75472" /><rect
       x="270.59989"
       y="596.32955"
       width="31.680284"
       height="28.415585"
       id="rect75333" /></defs><g
     inkscape:label="Layer 1"
     inkscape:groupmode="layer"
     id="layer1"><text
       xml:space="preserve"
       style="font-style:normal;font-variant:normal;font-weight:normal;font-stretch:normal;font-size:3.06624px;font-family:Chilanka;-inkscape-font-specification:'Chilanka, Normal';font-variant-ligatures:normal;font-variant-caps:normal;font-variant-numeric:normal;font-variant-east-asian:normal;white-space:pre;inline-size:36.9254;fill:#333333;fill-opacity:1;stroke-width:0.264583"
       x="72.221771"
       y="157.15039"
       id="text75279"
       transform="matrix(3.3044907,0,0,3.4154945,-143.65918,-349.06401)"><tspan
         x="72.221771"
         y="157.15039"
         id="tspan1846">m</tspan></text><text
       xml:space="preserve"
       transform="scale(0.26458333)"
       id="text75331"
       style="fill:#916f6f;fill-opacity:1;white-space:pre;shape-inside:url(#rect75333)" /><path
       style="fill:#333333;stroke-width:0.0368418"
       d="m 108.15208,191.03276 c -1.3673,-0.14968 -2.07047,-0.3639 -3.0987,-0.94398 -0.58368,-0.32927 -0.94936,-0.73467 -1.27666,-1.41534 -0.17066,-0.35489 -0.29904,-0.77693 -0.43392,-1.42645 -0.26527,-1.27755 -0.26193,-2.14042 0.0142,-3.66078 0.12514,-0.68893 0.26418,-1.23324 0.46496,-1.82005 0.0816,-0.2387 0.14837,-0.43985 0.14824,-0.447 -1.3e-4,-0.007 -0.11332,-0.16958 -0.25153,-0.36092 -0.42941,-0.59447 -0.67431,-1.16695 -0.81571,-1.9068 -0.0747,-0.39092 -0.0865,-1.22198 -0.0228,-1.61227 0.1453,-0.89099 0.52381,-1.71256 1.02162,-2.21752 0.81049,-0.82212 1.71144,-0.94873 2.54101,-0.35707 0.51252,0.36553 1.07326,1.15348 1.28185,1.80124 0.0319,0.099 0.0683,0.14715 0.11192,0.1479 0.0356,4.7e-4 0.31612,-0.0614 0.62346,-0.13783 0.78026,-0.19403 1.01339,-0.21807 1.95773,-0.2019 0.99523,0.017 1.64972,0.0853 2.23013,0.23244 0.2373,0.0602 0.44022,0.096 0.45096,0.0798 0.0106,-0.0164 0.0355,-0.1013 0.055,-0.18879 0.10952,-0.49145 0.63731,-1.30025 1.08113,-1.65675 0.93957,-0.75471 2.26682,-0.64643 3.04248,0.24823 0.85452,0.98565 1.25667,2.68172 0.97171,4.09834 -0.1309,0.65072 -0.34198,1.11218 -0.8161,1.78409 l -0.26862,0.38064 0.0892,0.16139 c 0.15307,0.27692 0.34937,0.81252 0.47142,1.28622 0.14381,0.55818 0.34146,1.6471 0.42433,2.33776 0.0756,0.63053 0.0995,1.75722 0.0466,2.20601 -0.10145,0.86202 -0.44226,1.8014 -0.82104,2.26303 -0.31682,0.38615 -0.93832,0.81071 -1.43072,0.97742 -0.29401,0.0995 -1.23157,0.29829 -1.58101,0.33518 -0.17402,0.0184 -0.42311,0.0509 -0.55353,0.0723 -0.30824,0.0506 -5.11509,9e-4 -5.65769,-0.0586 z m 5.38978,-0.9313 c 0.98209,-0.0878 1.95334,-0.2747 2.37019,-0.45607 0.25151,-0.10942 0.65391,-0.38475 0.86778,-0.59372 0.24776,-0.24211 0.52525,-0.88679 0.64399,-1.49591 0.044,-0.22561 0.0512,-0.43235 0.0402,-1.15293 -0.0147,-0.97344 -0.0635,-1.40286 -0.28533,-2.51683 -0.19431,-0.97595 -0.38186,-1.51415 -0.70169,-2.01343 -0.0594,-0.0928 -0.1248,-0.23363 -0.14524,-0.31299 -0.0656,-0.25434 -0.002,-0.40174 0.44666,-1.03914 0.2269,-0.32222 0.46953,-0.70579 0.53918,-0.85236 0.37255,-0.78417 0.37368,-1.86872 0.003,-2.85 -0.15851,-0.41958 -0.52064,-0.94047 -0.77078,-1.10874 -0.3569,-0.24006 -0.95639,-0.32745 -1.37596,-0.20057 -0.66796,0.20198 -1.32468,1.04673 -1.36191,1.75183 -0.0137,0.26042 -0.0441,0.377 -0.13031,0.50083 -0.12674,0.18197 -0.16548,0.17961 -1.15928,-0.0709 -0.74076,-0.18668 -2.21845,-0.28736 -3.01426,-0.20534 -0.3821,0.0394 -1.56063,0.32682 -1.59101,0.38806 -0.0482,0.0973 -0.18434,0.18038 -0.29232,0.17848 -0.16234,-0.003 -0.31067,-0.18569 -0.41085,-0.50643 -0.17885,-0.57258 -0.34309,-0.92863 -0.57266,-1.2416 -0.38675,-0.52722 -0.71047,-0.75533 -1.14081,-0.80383 -0.67299,-0.0758 -1.42134,0.6043 -1.74819,1.58883 -0.13146,0.396 -0.18137,0.72985 -0.17497,1.17035 0.0131,0.89711 0.2956,1.61951 0.90003,2.30105 0.41446,0.46734 0.41916,0.54492 0.0888,1.46524 -0.22715,0.63265 -0.35337,1.10096 -0.47825,1.77444 -0.25615,1.38135 -0.26293,2.08597 -0.031,3.22297 0.20008,0.98102 0.53487,1.64751 0.99284,1.97647 0.46081,0.33105 1.21345,0.66646 1.88092,0.83827 0.30148,0.0776 0.83902,0.14827 1.68284,0.22124 0.62759,0.0543 4.43073,0.0872 4.92856,0.0427 z m -3.29619,-3.97603 c -0.24376,-0.10917 -0.37616,-0.42713 -0.3229,-0.77551 0.0515,-0.33751 0.31754,-0.5087 0.7349,-0.47291 0.17718,0.0152 0.26096,0.0433 0.32645,0.10953 0.15361,0.15537 0.21117,0.29304 0.21436,0.51264 0.004,0.24406 -0.10771,0.46711 -0.29449,0.59039 -0.15737,0.10387 -0.46864,0.12083 -0.65832,0.0358 z m -2.20339,-0.24757 c -0.095,-0.12753 -0.11022,-0.1756 -0.11236,-0.35522 -0.005,-0.39006 0.0488,-1.0154 0.095,-1.11291 0.15814,-0.33335 0.49674,-0.30658 0.6376,0.0504 0.0491,0.12432 0.0515,0.19394 0.0242,0.67115 -0.0419,0.73275 -0.11646,0.90144 -0.39589,0.89648 -0.11554,-0.002 -0.15715,-0.0271 -0.24866,-0.14994 z m 4.7768,0.0764 c -0.12717,-0.14443 -0.1695,-0.35058 -0.18464,-0.89906 -0.0136,-0.49235 0.0125,-0.57551 0.2167,-0.68958 0.13333,-0.0745 0.28776,-0.0114 0.39727,0.16233 0.0636,0.10093 0.0844,0.20531 0.12279,0.6154 0.0396,0.4231 0.0398,0.51549 0.002,0.64486 -0.0846,0.28551 -0.37234,0.37182 -0.55354,0.16605 z"
       id="path75202-3"
       inkscape:transform-center-x="-0.035739345"
       inkscape:transform-center-y="-1.6818023" /><path
       style="fill:#333333;stroke-width:0.0368418"
       d="m 84.688213,191.17327 c -1.367303,-0.14969 -2.070476,-0.3639 -3.098698,-0.94398 -0.583676,-0.32928 -0.949355,-0.73466 -1.276661,-1.41533 -0.17066,-0.35489 -0.299041,-0.77693 -0.433915,-1.42646 -0.265285,-1.27755 -0.261931,-2.14043 0.01421,-3.66079 0.125139,-0.68892 0.264184,-1.23322 0.464962,-1.82005 0.08166,-0.23869 0.14837,-0.43984 0.148239,-0.44699 -1.33e-4,-0.007 -0.113317,-0.16958 -0.251531,-0.36092 -0.429409,-0.59447 -0.674314,-1.16696 -0.815708,-1.90679 -0.07471,-0.39093 -0.08648,-1.22199 -0.02283,-1.61229 0.145301,-0.89098 0.523806,-1.71256 1.02163,-2.21752 0.810477,-0.82211 1.711435,-0.94871 2.54101,-0.35706 0.512507,0.36553 1.073256,1.15347 1.281856,1.80123 0.03187,0.099 0.06833,0.14716 0.111912,0.14791 0.03557,4.8e-4 0.316114,-0.0614 0.623464,-0.13784 0.780249,-0.19403 1.013382,-0.21806 1.957722,-0.2019 0.99524,0.017 1.649733,0.0853 2.230144,0.23245 0.237297,0.0602 0.440222,0.096 0.450966,0.0798 0.0106,-0.0164 0.03547,-0.1013 0.05499,-0.18879 0.109523,-0.49146 0.637312,-1.30026 1.081129,-1.65675 0.93957,-0.75472 2.266816,-0.64642 3.042477,0.24824 0.854519,0.98563 1.256664,2.68171 0.971708,4.09832 -0.130889,0.65074 -0.341969,1.11219 -0.816103,1.78409 l -0.268609,0.38065 0.08924,0.16139 c 0.153071,0.27691 0.349372,0.81252 0.471422,1.28623 0.143811,0.55817 0.341463,1.64709 0.424346,2.33775 0.07563,0.63052 0.09949,1.75722 0.04664,2.20601 -0.101454,0.86202 -0.442268,1.8014 -0.821039,2.26303 -0.316831,0.38616 -0.938323,0.81072 -1.430726,0.97741 -0.294001,0.0995 -1.231564,0.29831 -1.581002,0.33519 -0.174034,0.0184 -0.423117,0.0509 -0.553537,0.0723 -0.308236,0.0506 -5.115099,9e-4 -5.657704,-0.0586 z m 5.389788,-0.9313 c 0.982087,-0.0878 1.953345,-0.2747 2.370184,-0.45607 0.251513,-0.10942 0.653921,-0.38475 0.867778,-0.59373 0.24776,-0.24211 0.525246,-0.88678 0.643993,-1.4959 0.04401,-0.22561 0.05123,-0.43235 0.04016,-1.15294 -0.01473,-0.97343 -0.06353,-1.40285 -0.28534,-2.51681 -0.194312,-0.97597 -0.381867,-1.51415 -0.701691,-2.01344 -0.0594,-0.0928 -0.12479,-0.23363 -0.145246,-0.313 -0.0655,-0.25434 -0.0028,-0.40173 0.446669,-1.03913 0.226909,-0.32222 0.469527,-0.70579 0.539189,-0.85236 0.37255,-0.78417 0.373667,-1.86873 0.0028,-2.85 -0.158523,-0.41957 -0.520648,-0.94048 -0.770781,-1.10874 -0.356898,-0.24006 -0.956376,-0.32746 -1.375946,-0.20058 -0.667968,0.20199 -1.324694,1.04675 -1.361908,1.75184 -0.01379,0.26042 -0.0441,0.37698 -0.130327,0.50083 -0.126741,0.18197 -0.165467,0.17961 -1.159282,-0.0709 -0.740764,-0.18669 -2.21845,-0.28735 -3.01426,-0.20535 -0.382102,0.0394 -1.560627,0.32683 -1.591009,0.38807 -0.04825,0.0973 -0.184339,0.18037 -0.292322,0.17848 -0.162335,-0.003 -0.31067,-0.1857 -0.410857,-0.50643 -0.178853,-0.57257 -0.343084,-0.92864 -0.572661,-1.2416 -0.38675,-0.52722 -0.710469,-0.75533 -1.140807,-0.80383 -0.672985,-0.0758 -1.421334,0.60429 -1.748184,1.58882 -0.131465,0.39601 -0.181376,0.72986 -0.174977,1.17036 0.01309,0.8971 0.2956,1.61951 0.900033,2.30105 0.414463,0.46734 0.419166,0.54491 0.08874,1.46524 -0.227145,0.63265 -0.353364,1.10096 -0.478244,1.77444 -0.256142,1.38135 -0.262926,2.08597 -0.031,3.22298 0.200083,0.98101 0.534877,1.6475 0.992842,1.97646 0.460806,0.33105 1.213453,0.66645 1.880923,0.83827 0.30148,0.0776 0.839021,0.14827 1.682838,0.22124 0.62759,0.0543 4.430741,0.0872 4.928569,0.0427 z m -3.2962,-3.97604 c -0.243762,-0.10916 -0.376151,-0.42713 -0.322902,-0.7755 0.05158,-0.33752 0.31754,-0.5087 0.734911,-0.47291 0.177168,0.0152 0.260953,0.0433 0.326449,0.10953 0.153609,0.15537 0.211176,0.29304 0.214367,0.51264 0.0038,0.24405 -0.107712,0.46712 -0.294492,0.59039 -0.157369,0.10387 -0.468649,0.12083 -0.658333,0.0358 z m -2.203382,-0.24755 c -0.09503,-0.12755 -0.110227,-0.17562 -0.112364,-0.35524 -0.0045,-0.39005 0.04876,-1.01539 0.09501,-1.1129 0.158138,-0.33335 0.496733,-0.30658 0.637595,0.0504 0.04907,0.12432 0.05158,0.19394 0.0242,0.67114 -0.04196,0.73276 -0.116456,0.90146 -0.395898,0.8965 -0.115539,-0.002 -0.157148,-0.0271 -0.248653,-0.14994 z m 4.776806,0.0763 c -0.127173,-0.14443 -0.169511,-0.35057 -0.184646,-0.89904 -0.01361,-0.49237 0.01257,-0.57553 0.2167,-0.6896 0.133329,-0.0745 0.287761,-0.0114 0.397266,0.16233 0.06362,0.10094 0.08445,0.20531 0.1228,0.6154 0.0396,0.42311 0.03979,0.51549 0.0019,0.64487 -0.08464,0.28551 -0.372353,0.37182 -0.553546,0.16604 z"
       id="path75202-3-7"
       inkscape:transform-center-x="-0.035742631"
       inkscape:transform-center-y="-1.6818002" /><text
       xml:space="preserve"
       style="font-style:normal;font-variant:normal;font-weight:normal;font-stretch:normal;font-size:3.29176px;font-family:Chilanka;-inkscape-font-specification:'Chilanka, Normal';font-variant-ligatures:normal;font-variant-caps:normal;font-variant-numeric:normal;font-variant-east-asian:normal;white-space:pre;inline-size:28.2076;fill:#333333;fill-opacity:1;stroke-width:0.264583"
       x="127.42069"
       y="169.19514"
       id="text75468"
       transform="matrix(2.8408804,0,0,3.4471575,-243.5152,-395.41073)"><tspan
         x="127.42069"
         y="169.19514"
         id="tspan1848">chaa!!</tspan></text><text
       xml:space="preserve"
       transform="scale(0.26458333)"
       id="text75470"
       style="fill:#000000;fill-opacity:1;white-space:pre;shape-inside:url(#rect75472)" /></g></svg>
