<?xml version="1.0" encoding="UTF-8" standalone="no"?>
<!-- Created with Inkscape (http://www.inkscape.org/) -->

<svg
   width="210mm"
   height="297mm"
   viewBox="0 0 210 297"
   version="1.1"
   id="svg5"
   xml:space="preserve"
   sodipodi:docname="logo-greyish.svg"
   inkscape:version="1.2.2 (1:1.2.2+202212051552+b0a8486541)"
   xmlns:inkscape="http://www.inkscape.org/namespaces/inkscape"
   xmlns:sodipodi="http://sodipodi.sourceforge.net/DTD/sodipodi-0.dtd"
   xmlns="http://www.w3.org/2000/svg"
   xmlns:svg="http://www.w3.org/2000/svg"><sodipodi:namedview
     id="namedview7"
     pagecolor="#ffffff"
     bordercolor="#000000"
     borderopacity="0.25"
     inkscape:showpageshadow="2"
     inkscape:pageopacity="0.0"
     inkscape:pagecheckerboard="0"
     inkscape:deskcolor="#d1d1d1"
     inkscape:document-units="mm"
     showgrid="false"
     inkscape:zoom="0.73824297"
     inkscape:cx="481.54878"
     inkscape:cy="612.94183"
     inkscape:window-width="1920"
     inkscape:window-height="1016"
     inkscape:window-x="0"
     inkscape:window-y="0"
     inkscape:window-maximized="1"
     inkscape:current-layer="layer1" /><defs
     id="defs2" /><g
     inkscape:label="Layer 1"
     inkscape:groupmode="layer"
     id="layer1"><path
       style="fill:#333333;stroke-width:0.160427"
       d="m 93.994072,177.66057 c -6.645669,-0.48973 -10.053711,-1.27624 -15.018222,-3.4659 -2.818163,-1.24299 -4.569635,-2.79739 -6.114897,-5.42686 -0.805672,-1.37096 -1.400777,-3.00642 -2.011408,-5.52774 -1.201049,-4.95917 -1.123664,-8.32112 0.328311,-14.26323 0.657943,-2.69259 1.373377,-4.82266 2.392297,-7.12262 0.414447,-0.93552 0.753443,-1.72375 0.753325,-1.75163 -1.19e-4,-0.0279 -0.53966,-0.6529 -1.198981,-1.38892 -2.048367,-2.28668 -3.200084,-4.50031 -3.836067,-7.37303 -0.336048,-1.51792 -0.334539,-4.75489 0.0029,-6.27978 0.770406,-3.4812 2.671147,-6.70784 5.130405,-8.70922 4.003725,-3.2583 8.39871,-3.8131 12.395373,-1.56475 2.469117,1.38902 5.143183,4.42052 6.112834,6.92991 0.148138,0.38338 0.322208,0.56862 0.534323,0.56862 0.173033,0 1.543242,-0.26082 3.04491,-0.57961 3.812105,-0.80925 4.948745,-0.91886 9.544815,-0.92042 4.84376,-0.002 8.02512,0.21939 10.84032,0.75316 1.15088,0.21821 2.13623,0.34415 2.18967,0.27987 0.0534,-0.0643 0.17992,-0.39695 0.28106,-0.73925 0.56796,-1.92215 3.19458,-5.10926 5.38035,-6.52848 4.62742,-3.00456 11.08107,-2.67338 14.79379,0.75917 4.09023,3.78155 5.92789,10.36193 4.44043,15.9005 -0.68326,2.54415 -1.7435,4.35636 -4.09919,7.0065 l -1.33457,1.50139 0.42284,0.62263 c 0.72557,1.06839 1.64333,3.14165 2.20395,4.97887 0.66058,2.1648 1.54575,6.39366 1.90033,9.07879 0.32371,2.45131 0.36003,6.83925 0.0711,8.5913 -0.55494,3.36534 -2.28055,7.04841 -4.15714,8.87281 -1.5697,1.52605 -4.62526,3.22264 -7.03425,3.90574 -1.43823,0.40784 -6.01653,1.24631 -7.72028,1.41391 -0.84852,0.0835 -2.06346,0.22729 -2.69985,0.31962 -1.50413,0.21821 -24.901245,0.353 -27.538536,0.15865 z m 26.304318,-3.99668 c 4.78719,-0.40923 9.52868,-1.20371 11.5708,-1.9388 1.23214,-0.44352 3.21064,-1.5437 4.2665,-2.37245 1.22329,-0.96018 2.61996,-3.49063 3.24101,-5.87199 0.23002,-0.88198 0.27972,-1.68792 0.27715,-4.49453 -0.003,-3.79144 -0.21007,-5.46114 -1.21095,-9.7859 -0.87688,-3.78901 -1.75187,-5.87294 -3.27349,-7.79632 -0.28276,-0.35742 -0.59097,-0.90167 -0.68491,-1.20945 -0.30107,-0.98643 0.0178,-1.56502 2.24794,-4.07898 1.12741,-1.27088 2.33571,-2.78184 2.6851,-3.35767 1.86917,-3.08053 1.95137,-7.30598 0.21601,-11.10363 -0.74201,-1.62381 -2.46805,-3.62849 -3.67383,-4.26691 -1.72042,-0.9109 -4.63268,-1.21041 -6.68419,-0.68743 -3.26605,0.83259 -6.5229,4.16862 -6.75398,6.91817 -0.0854,1.01555 -0.24125,1.47176 -0.66985,1.96012 -0.62981,0.71765 -0.81826,0.71107 -5.6386,-0.1968 -3.59295,-0.6767 -10.77945,-0.9679 -14.65943,-0.59402 -1.862927,0.17952 -7.620528,1.37996 -7.772753,1.6206 -0.241895,0.38238 -0.910161,0.71534 -1.435718,0.71534 -0.790059,0 -1.499251,-0.70221 -1.964301,-1.94495 -0.830175,-2.21846 -1.604458,-3.59444 -2.699938,-4.79807 -1.845445,-2.02763 -3.405248,-2.89417 -5.496792,-3.0537 -3.270838,-0.24948 -6.962073,2.45144 -8.622898,6.30947 -0.668027,1.5518 -0.93463,2.85585 -0.93463,4.57159 0,3.49424 1.324409,6.28934 4.218663,8.90329 1.984622,1.79242 2.002001,2.09432 0.328283,5.70245 -1.150555,2.48031 -1.798152,4.31346 -2.453752,6.94582 -1.344693,5.39918 -1.427583,8.14487 -0.379137,12.55868 0.904621,3.80833 2.487305,6.38205 4.693476,7.6324 2.219888,1.25813 5.860139,2.5135 9.097355,3.13729 1.462154,0.28175 4.074024,0.52032 8.176707,0.74689 3.0514,0.16851 21.563455,0.0369 23.990155,-0.17051 z m -15.76511,-15.26516 c -1.17893,-0.40868 -1.80091,-1.63838 -1.51704,-2.99927 0.27502,-1.31847 1.58198,-2.00348 3.61112,-1.89268 0.86144,0.047 1.26735,0.15084 1.58145,0.40441 0.73681,0.59484 1.00731,1.12724 1.00731,1.9826 0,0.95056 -0.55745,1.8272 -1.47542,2.32025 -0.77343,0.41541 -2.28997,0.50274 -3.20742,0.18469 z m -10.708913,-0.81391 c -0.45358,-0.49046 -0.524182,-0.67665 -0.52187,-1.37627 0.005,-1.51935 0.30916,-3.95926 0.541278,-4.34232 0.793493,-1.30948 2.43989,-1.22837 3.100392,0.15275 0.230035,0.48101 0.237345,0.75207 0.07046,2.61311 -0.256241,2.85761 -0.630755,3.51993 -1.990372,3.51993 -0.56234,0 -0.763121,-0.0949 -1.199892,-0.5672 z m 23.248943,-0.0289 c -0.60889,-0.554 -0.80041,-1.35422 -0.8353,-3.48999 -0.0313,-1.91731 0.1018,-2.2431 1.10376,-2.70146 0.65431,-0.29932 1.40164,-0.064 1.92248,0.60528 0.30265,0.38892 0.39665,0.7941 0.55426,2.38921 0.16261,1.64565 0.15706,2.00559 -0.0387,2.51222 -0.43206,1.11814 -1.83896,1.47408 -2.7065,0.68474 z"
       id="path75202" /></g></svg>
