<svg width="36" height="38" viewBox="0 0 36 38" fill="none" xmlns="http://www.w3.org/2000/svg">
<path d="M11.0207 24.9955C11.0021 24.9962 10.9835 24.9968 10.965 24.9974Z" fill="#ECECEC"/>
<path d="M15.4705 29.4255C24.0147 29.4255 30.941 22.8384 30.941 14.7128C30.941 6.58712 24.0147 0 15.4705 0C6.92639 0 0 6.58712 0 14.7128C0 22.8384 6.92639 29.4255 15.4705 29.4255Z" fill="#3B3636"/>
<path d="M15.5115 27.3466C23.0405 27.3466 29.144 21.6214 29.144 14.5591C29.144 7.49669 23.0405 1.77151 15.5115 1.77151C7.98242 1.77151 1.87891 7.49669 1.87891 14.5591C1.87891 21.6214 7.98242 27.3466 15.5115 27.3466Z" fill="white"/>
<path d="M25.7773 25.4896L24.9843 26.0736L35.207 38L36 37.416L25.7773 25.4896Z" fill="#372A2A"/>
</svg>
