<svg width="35" height="42" viewBox="0 0 35 42" fill="none" xmlns="http://www.w3.org/2000/svg">
<path d="M29.0137 11.8713H5.3776C2.56281 11.8713 0.280975 14.0647 0.280975 16.7703V36.4907C0.280975 39.1963 2.56281 41.3897 5.3776 41.3897H29.0137C31.8285 41.3897 34.1103 39.1963 34.1103 36.4907V16.7703C34.1103 14.0647 31.8285 11.8713 29.0137 11.8713Z" fill="#232323" fill-opacity="0.997961"/>
<path d="M9.14462 21.7864C8.19967 18.7781 8.25645 15.9933 8.19132 12.9394C8.27624 11.0237 8.02658 9.08036 8.53166 7.18068C8.93694 6.07123 9.88068 5.09098 10.9463 4.17756C11.7497 3.57251 12.6146 2.92545 13.7797 2.57183C14.0334 2.49477 14.3058 2.44347 14.5688 2.3794C16.312 2.05157 18.1394 1.95892 19.9528 2.00441C21.0932 2.05149 22.1971 2.22142 23.2762 2.44385C24.3621 2.73219 26.4255 3.44364 21.7089 1.84403C21.5533 1.79136 22.0086 1.96156 22.1549 2.02319C22.5173 2.17646 22.6395 2.24119 22.9818 2.40718C23.6885 2.738 24.1978 3.17764 24.6574 3.63798C25.08 4.07914 25.4583 4.53563 25.7546 5.01434C26.1283 5.61982 26.2297 6.26302 26.3014 6.90359C26.3666 7.78396 26.3679 8.66571 26.3679 9.54688C26.3671 10.4756 26.3643 11.4042 26.3591 12.3329C26.3538 13.0391 26.3467 13.7452 26.334 14.4513C26.3358 15.0092 26.2354 15.5633 26.1549 16.1181C26.0529 16.8761 26.03 17.637 25.9983 18.397C25.9824 18.8718 25.9703 19.3467 25.9548 19.8214C25.9512 19.9605 25.9424 20.0991 25.9407 20.2383C25.9424 20.3597 25.946 20.4808 25.946 20.6021C25.9462 20.6688 25.9448 21.6889 25.9442 21.7557L29.0749 21.7855C29.0732 21.7181 29.0732 21.6508 29.0732 21.5834C29.074 21.4633 29.0767 21.3428 29.0784 21.2226C29.0749 21.0802 29.0644 20.9379 29.0598 20.7956C29.0422 20.3156 29.0339 19.8353 29.0395 19.3551C29.0483 18.6009 29.0742 17.8459 29.1932 17.0947C29.2915 16.5356 29.4094 15.977 29.3997 15.4132C29.3874 14.7022 29.3814 13.9911 29.3765 13.28C29.3747 12.3503 29.3747 11.4206 29.3769 10.491C29.3773 9.60942 29.3927 8.72752 29.348 7.84622C29.3018 7.19244 29.2222 6.53618 28.8777 5.91166C28.6028 5.41798 28.2341 4.95036 27.8096 4.4986C27.3569 4.02048 26.872 3.54781 26.1649 3.19468C24.487 2.34417 22.5956 1.62712 20.5634 1.14846C19.4812 0.942735 18.3709 0.80361 17.2349 0.78178C15.3952 0.775005 13.5443 0.881368 11.7857 1.23193C11.5045 1.30323 11.2126 1.36064 10.942 1.44629C9.75321 1.82244 8.87906 2.50146 8.06435 3.1295C6.97603 4.07162 6.02112 5.08434 5.582 6.21963C5.53601 6.41439 5.47311 6.60802 5.44404 6.80408C5.37885 7.24484 5.39154 7.85942 5.40281 8.28985C5.43717 9.56685 5.52685 10.8432 5.56702 12.1201C5.71027 15.1266 5.96564 18.8054 6.33927 21.8053L9.10169 21.7721L9.14462 21.7864Z" fill="#E6E6E6" fill-opacity="0.997961"/>
</svg>
