<svg width="35" height="38" viewBox="0 0 35 38" fill="none" xmlns="http://www.w3.org/2000/svg">
<path d="M29.5406 8.39819H5.90451C3.08973 8.39819 0.807892 10.5916 0.807892 13.2973V33.0176C0.807892 35.7233 3.08973 37.9166 5.90451 37.9166H29.5406C32.3554 37.9166 34.6372 35.7233 34.6372 33.0176V13.2973C34.6372 10.5916 32.3554 8.39819 29.5406 8.39819Z" fill="#232323" fill-opacity="0.997961"/>
<path d="M11.1874 14.9865C10.6364 12.8401 10.6695 10.8533 10.6315 8.67435C10.681 7.30754 10.5354 5.92105 10.83 4.56567C11.0663 3.77411 11.6167 3.07472 12.2381 2.42303C12.7067 1.99133 13.2111 1.52967 13.8905 1.27737C14.0384 1.22239 14.1973 1.18579 14.3507 1.14008C15.3673 0.906182 16.433 0.840073 17.4905 0.872529C18.1555 0.906121 18.7993 1.02736 19.4286 1.18607C20.0618 1.39179 21.2652 1.89939 18.5146 0.758104C18.4238 0.720524 18.6894 0.841962 18.7747 0.885933C18.986 0.995289 19.0573 1.04147 19.2569 1.1599C19.6691 1.39593 19.9661 1.7096 20.2341 2.03804C20.4805 2.3528 20.7011 2.67849 20.8739 3.02004C21.0918 3.45204 21.151 3.91095 21.1928 4.36798C21.2308 4.9961 21.2316 5.62521 21.2316 6.2539C21.2311 6.91651 21.2295 7.57908 21.2264 8.24169C21.2233 8.74551 21.2192 9.24931 21.2118 9.75308C21.2129 10.1512 21.1543 10.5465 21.1074 10.9423C21.0479 11.4831 21.0345 12.026 21.016 12.5682C21.0068 12.907 20.9997 13.2458 20.9907 13.5845C20.9886 13.6837 20.9835 13.7827 20.9824 13.882C20.9835 13.9686 20.9855 14.055 20.9855 14.1416C20.9856 14.1892 20.9848 14.9169 20.9845 14.9646L22.8102 14.9858C22.8092 14.9377 22.8092 14.8898 22.8092 14.8417C22.8097 14.756 22.8113 14.67 22.8123 14.5843C22.8102 14.4826 22.8041 14.3811 22.8014 14.2796C22.7911 13.9371 22.7863 13.5945 22.7896 13.2518C22.7947 12.7137 22.8098 12.175 22.8792 11.6391C22.9365 11.2402 23.0053 10.8417 22.9997 10.4394C22.9925 9.93207 22.989 9.42472 22.9861 8.91736C22.9851 8.25409 22.9851 7.59079 22.9863 6.92749C22.9866 6.29852 22.9956 5.66931 22.9695 5.04052C22.9426 4.57406 22.8961 4.10584 22.6952 3.66026C22.5349 3.30803 22.3199 2.97439 22.0723 2.65208C21.8083 2.31095 21.5256 1.97371 21.1132 1.72176C20.1347 1.11494 19.0317 0.603344 17.8466 0.26183C17.2155 0.115052 16.568 0.0157902 15.9055 0.000214612C14.8326 -0.00461877 13.7532 0.0712687 12.7277 0.321384C12.5637 0.372255 12.3935 0.41322 12.2356 0.474326C11.5424 0.7427 11.0326 1.22717 10.5575 1.67526C9.92278 2.34744 9.36591 3.06998 9.10982 3.87999C9.08301 4.01895 9.04632 4.1571 9.02937 4.29698C8.99135 4.61145 8.99875 5.04994 9.00533 5.35704C9.02536 6.26815 9.07766 7.17881 9.10109 8.08985C9.18463 10.2349 9.33355 12.8596 9.55144 15L11.1624 14.9763L11.1874 14.9865Z" fill="#E6E6E6" fill-opacity="0.997961"/>
</svg>
