<svg width="48" height="38" viewBox="0 0 48 38" fill="none" xmlns="http://www.w3.org/2000/svg">
<path d="M15.8059 37.5172C11.597 37.2353 9.4386 36.7824 6.29441 35.5217C4.50957 34.8061 3.4003 33.9111 2.42164 32.3972C1.91138 31.6078 1.53448 30.6662 1.14775 29.2145C0.387081 26.3592 0.43609 24.4236 1.35567 21.0024C1.77237 19.4521 2.22548 18.2257 2.87079 16.9015C3.13328 16.3628 3.34798 15.909 3.3479 15.8929C3.34783 15.8769 3.00612 15.517 2.58855 15.0933C1.29125 13.7767 0.561826 12.5022 0.159037 10.8482C-0.0537936 9.97423 -0.0528384 8.11052 0.160873 7.23255C0.648797 5.22822 1.8526 3.37046 3.41013 2.21815C5.94582 0.34216 8.72931 0.0227288 11.2605 1.31723C12.8243 2.11697 14.5179 3.86238 15.132 5.30718C15.2258 5.52792 15.3361 5.63457 15.4704 5.63457C15.58 5.63457 16.4478 5.4844 17.3988 5.30086C19.8132 4.83492 20.533 4.77182 23.4439 4.77092C26.5116 4.76977 28.5265 4.89723 30.3094 5.20456C31.0383 5.33019 31.6624 5.4027 31.6962 5.36569C31.73 5.32867 31.8102 5.13714 31.8742 4.94006C32.2339 3.83337 33.8975 1.99837 35.2818 1.18124C38.2125 -0.548658 42.2998 -0.357978 44.6512 1.61834C47.2417 3.79559 48.4055 7.5843 47.4635 10.7732C47.0307 12.238 46.3592 13.2814 44.8673 14.8072L44.0221 15.6717L44.2899 16.0301C44.7494 16.6453 45.3306 17.839 45.6857 18.8968C46.1041 20.1432 46.6647 22.578 46.8892 24.1239C47.0943 25.5353 47.1173 28.0617 46.9343 29.0704C46.5828 31.0081 45.4899 33.1286 44.3014 34.179C43.3073 35.0577 41.3721 36.0345 39.8464 36.4278C38.9355 36.6626 36.0359 37.1454 34.9569 37.2419C34.4195 37.2899 33.65 37.3727 33.247 37.4259C32.2944 37.5515 17.4762 37.6291 15.8059 37.5172ZM32.4653 35.2161C35.4972 34.9805 38.5002 34.5231 39.7935 34.0998C40.5739 33.8445 41.8269 33.211 42.4956 32.7339C43.2704 32.1811 44.1549 30.7241 44.5483 29.353C44.6939 28.8452 44.7254 28.3812 44.7238 26.7653C44.7219 24.5823 44.5908 23.621 43.9569 21.131C43.4015 18.9494 42.8473 17.7496 41.8837 16.6422C41.7046 16.4364 41.5094 16.123 41.4499 15.9458C41.2592 15.3779 41.4612 15.0448 42.8736 13.5973C43.5876 12.8656 44.3529 11.9957 44.5741 11.6641C45.7579 9.89048 45.81 7.45765 44.7109 5.27112C44.241 4.3362 43.1478 3.18199 42.3842 2.81442C41.2946 2.28996 39.4502 2.11751 38.1509 2.41862C36.0824 2.89799 34.0197 4.81874 33.8733 6.40181C33.8193 6.98652 33.7206 7.24919 33.4491 7.53037C33.0502 7.94356 32.9309 7.93977 29.878 7.41706C27.6025 7.02744 23.051 6.85978 20.5937 7.07505C19.4138 7.17841 15.7674 7.86957 15.6709 8.00812C15.5177 8.22828 15.0945 8.41998 14.7617 8.41998C14.2613 8.41998 13.8121 8.01568 13.5176 7.30016C12.9918 6.02287 12.5014 5.23063 11.8076 4.53764C10.6389 3.37021 9.65098 2.8713 8.32634 2.77945C6.25481 2.63581 3.91703 4.19088 2.86517 6.41217C2.44209 7.30563 2.27324 8.05645 2.27324 9.0443C2.27324 11.0561 3.11203 12.6654 4.94506 14.1704C6.20199 15.2024 6.21299 15.3763 5.15297 17.4537C4.42428 18.8817 4.01414 19.9372 3.59893 21.4528C2.74729 24.5614 2.69479 26.1422 3.35881 28.6835C3.93173 30.8762 4.9341 32.358 6.33134 33.0779C7.73727 33.8023 10.0428 34.5251 12.093 34.8843C13.019 35.0465 14.6732 35.1838 17.2716 35.3143C19.2041 35.4113 30.9284 35.3355 32.4653 35.2161ZM22.4808 26.4271C21.7341 26.1918 21.3402 25.4838 21.52 24.7002C21.6942 23.9411 22.5219 23.5467 23.807 23.6105C24.3526 23.6376 24.6097 23.6974 24.8086 23.8434C25.2753 24.1858 25.4466 24.4924 25.4466 24.9848C25.4466 25.5321 25.0935 26.0369 24.5121 26.3207C24.0223 26.5599 23.0618 26.6102 22.4808 26.4271ZM15.6985 25.9585C15.4112 25.6761 15.3665 25.5689 15.3679 25.1661C15.3711 24.2913 15.5637 22.8865 15.7108 22.6659C16.2133 21.912 17.256 21.9587 17.6743 22.7539C17.82 23.0308 17.8247 23.1869 17.719 24.2584C17.5567 25.9037 17.3195 26.285 16.4584 26.285C16.1022 26.285 15.9751 26.2304 15.6985 25.9585ZM30.4228 25.9418C30.0372 25.6229 29.9159 25.1621 29.8938 23.9324C29.8739 22.8285 29.9582 22.641 30.5928 22.3771C31.0072 22.2047 31.4805 22.3402 31.8104 22.7256C32.0021 22.9495 32.0616 23.1828 32.1614 24.1012C32.2644 25.0487 32.2609 25.2559 32.1369 25.5476C31.8633 26.1914 30.9722 26.3963 30.4228 25.9418Z" fill="#292929"/>
</svg>
