<svg width="39" height="34" viewBox="0 0 39 34" fill="none" xmlns="http://www.w3.org/2000/svg">
<path d="M26.5749 0.00159924C26.1971 -0.000397647 25.8188 0.00780712 25.4412 0.0171675C24.9452 0.0202876 24.4484 0.0109356 23.9535 0.0452571C23.3994 0.0964272 22.8508 0.193789 22.333 0.380903C21.85 0.566239 21.3668 0.758346 20.9233 1.01101C20.6519 1.18418 20.3818 1.36021 20.1226 1.54686C19.8414 1.79241 19.5605 2.03861 19.294 2.2969C19.0146 2.57896 18.7482 2.87454 18.5924 3.22761C18.4601 3.54814 18.3587 3.88387 18.3117 4.22265C18.282 4.41017 18.2425 4.59662 18.1889 4.77968C16.6693 3.74046 14.9259 2.95513 13.1678 2.27528C12.5737 2.0706 11.9694 1.86585 11.3272 1.82385C10.7185 1.80825 10.1113 1.87656 9.51632 1.9892C8.77156 2.16736 8.06313 2.43192 7.35022 2.69029C6.56659 2.958 5.78556 3.24207 5.07873 3.64934C4.51106 3.98581 3.94913 4.33369 3.44426 4.74273C2.92318 5.19659 2.43996 5.68568 2.00485 6.20568C1.60101 6.71891 1.27212 7.26643 0.984111 7.83754C0.714941 8.37748 0.444437 8.91982 0.253923 9.48635C0.0571153 10.1312 -0.014932 10.7984 0.00294623 11.4662C0.0178936 12.0097 0.0296181 12.553 0.00352761 13.0965C-0.00702349 13.4079 0.000597976 13.7204 0.104263 14.0215C0.299487 14.5473 0.580751 15.0361 0.935186 15.4933C1.31673 16.0309 1.74392 16.5342 2.21621 17.0129C2.69962 17.5285 3.15041 18.0695 3.69754 18.5361C4.34752 19.1059 4.99737 19.6767 5.61908 20.2709C7.17189 21.7759 8.63961 23.3468 10.1149 24.911C11.4156 26.2986 12.6982 27.7 14.0104 29.0791C14.4626 29.5545 15.5761 30.7144 16.131 31.2221C16.2955 31.3725 16.482 31.5033 16.6574 31.6437L17.801 32.0375L20.299 33.431C20.4695 33.3146 20.6332 33.1923 20.7934 33.065C20.868 32.9839 20.9257 32.895 20.9564 32.7932C20.9726 32.636 21.0347 32.4859 21.1078 32.3428C21.2362 32.0979 21.4355 31.8965 21.6412 31.6989C21.8386 31.4926 22.0196 31.2749 22.2136 31.0662C22.4672 30.7882 22.737 30.5241 23.0102 30.2611C23.3232 29.9357 23.611 29.5931 23.8801 29.2383C24.1635 28.8933 24.4531 28.5517 24.7704 28.2303C25.0894 27.9002 25.4014 27.5641 25.7021 27.2208C26.0512 26.8088 26.3589 26.3729 26.6634 25.9344C27.0091 25.4503 27.356 24.966 27.7331 24.5003C28.0671 24.112 28.398 23.7216 28.7136 23.3214C29.0834 22.8678 29.462 22.4193 29.859 21.9841C30.3737 21.4717 30.9171 20.9828 31.4364 20.4742C31.8121 20.0945 32.1832 19.7117 32.5794 19.3484C32.9827 18.9542 33.3761 18.5519 33.7399 18.1284C34.004 17.8155 34.2949 17.5258 34.6075 17.2497C34.9686 16.8923 35.3154 16.5239 35.6259 16.1306C36.0165 15.6509 36.4417 15.193 36.8021 14.6949C37.0006 14.4028 37.2161 14.1186 37.3862 13.8125C37.5837 13.4566 37.7822 13.1002 37.9364 12.7274C38.1564 12.254 38.4288 11.7985 38.6061 11.3102C38.7001 11.0478 38.7472 10.7877 38.7248 10.5118C38.7237 10.3009 38.7271 10.09 38.7248 9.87912C38.724 9.63451 38.7213 9.38967 38.7193 9.14508C38.717 8.85678 38.7204 8.56846 38.7215 8.28026C38.7113 8.05966 38.6972 7.83944 38.6633 7.62034C38.6565 7.36387 38.6338 7.11253 38.4729 6.88935C38.1868 6.52532 37.8099 6.22365 37.5301 5.85413C37.207 5.45822 36.9044 5.04568 36.4948 4.71236C36.2199 4.46618 35.9403 4.2232 35.6476 3.99322C35.3612 3.7823 35.0504 3.59895 34.7451 3.41053C33.0782 2.58965 31.5036 1.61344 29.7607 0.92208C29.2249 0.716463 28.6911 0.507287 28.1565 0.299206C27.7667 0.165976 27.3765 0.0196603 26.9524 0.00593169C26.8265 0.00293637 26.7009 0.00471937 26.5749 0.00159924ZM28.2344 1.81309C28.2552 1.81278 28.276 1.81296 28.2967 1.81309C28.3243 1.81325 28.3517 1.81362 28.3794 1.81509C28.5331 1.82757 28.6815 1.86685 28.8284 1.90679C28.9789 1.94797 29.1272 1.99355 29.2703 2.0519C29.4249 2.11368 29.5524 2.21291 29.6919 2.29528C29.7198 2.29515 29.7478 2.29428 29.7757 2.29428C30.0254 2.29528 30.2743 2.30675 30.5181 2.34732C30.8985 2.44685 31.2693 2.58038 31.6315 2.7231C31.741 2.77115 31.8516 2.8164 31.9628 2.86102C32.1087 2.97647 32.2506 3.09657 32.3925 3.21566C32.8028 3.54374 33.157 3.91525 33.4843 4.30801C33.7658 4.66349 34.074 5.00058 34.3862 5.335C34.5393 5.48695 34.6301 5.6555 34.6634 5.85494C34.6863 6.07148 34.7159 6.28738 34.7292 6.50457C34.7515 6.78912 34.7527 7.07444 34.7506 7.35959C34.7484 7.60202 34.745 7.8445 34.7439 8.08696C34.7416 8.29788 34.7439 8.50879 34.7427 8.71964C34.7483 8.9627 34.7495 9.20213 34.7003 9.44188C34.566 9.92275 34.3096 10.3674 34.0865 10.8194C33.9279 11.1807 33.7211 11.5225 33.5194 11.8659C33.3379 12.158 33.1495 12.4466 32.9656 12.738C32.6331 13.2335 32.2301 13.6898 31.8418 14.152C31.5274 14.5265 31.1803 14.8783 30.8153 15.2145C30.4807 15.4938 30.1922 15.8058 29.9285 16.138C29.5962 16.5634 29.2034 16.9468 28.8029 17.322C28.3862 17.6734 28.04 18.0809 27.6674 18.4674C27.1622 18.9838 26.6191 19.4698 26.1098 19.9829C25.693 20.4213 25.297 20.8737 24.9121 21.3341C24.5828 21.7236 24.2667 22.1214 23.9408 22.513C23.5702 22.9942 23.2134 23.4838 22.856 23.9729C22.5526 24.4002 22.2485 24.8259 21.9022 25.2274C21.5955 25.5566 21.2897 25.8868 20.9735 26.2091C20.6527 26.5425 20.3542 26.8925 20.0686 27.2499C19.8124 27.5988 19.5207 27.9251 19.2092 28.2363C18.9255 28.4968 18.6568 28.7686 18.3981 29.0485C18.1951 29.2485 18.0131 29.4636 17.8187 29.6699C17.6495 29.8293 17.4993 29.9989 17.3692 30.1821C16.0996 28.9086 14.9015 27.5797 13.695 26.26C12.3131 24.7617 10.9945 23.2176 9.57587 21.746C8.99761 21.144 8.37363 20.579 7.7446 20.0189C7.19958 19.5626 6.7271 19.0478 6.25453 18.5343C5.80044 18.0562 5.35623 17.5724 4.96011 17.0553C4.63115 16.6216 4.32382 16.1768 4.12047 15.685C4.01021 15.4254 3.98665 15.1513 3.9685 14.8774C3.96118 14.3229 3.93312 13.7692 3.91202 13.2152C3.87861 12.5817 3.9537 11.9529 4.11933 11.3373C4.29969 10.7915 4.55594 10.2684 4.82212 9.75177C5.09595 9.20203 5.40177 8.66796 5.78464 8.17142C6.2043 7.67208 6.67837 7.20833 7.19202 6.78356C7.69506 6.40896 8.22342 6.0611 8.77818 5.74887C9.45901 5.35701 10.218 5.09991 10.971 4.84081C11.6774 4.58215 12.3848 4.33676 13.136 4.20456C13.7156 4.1328 14.2919 4.06667 14.8729 4.14624C14.9955 4.16808 15.1168 4.19425 15.2369 4.22389C15.2376 4.22457 15.239 4.22489 15.2398 4.22589C15.4562 4.44617 15.6404 4.68811 15.8122 4.93731C15.8135 4.93716 15.8149 4.9369 15.8163 4.93684C15.8475 4.93484 15.8858 4.95243 15.917 4.99611C15.9387 5.02731 15.9638 5.05414 15.9892 5.0819C16.0177 5.11311 16.0483 5.14244 16.0789 5.17146C16.1015 5.1933 16.1244 5.21388 16.1482 5.23416C16.1696 5.25288 16.1921 5.27036 16.214 5.28815C16.2398 5.30999 16.2644 5.3306 16.2879 5.35337C16.3079 5.37209 16.3275 5.39268 16.3468 5.41265C16.369 5.43449 16.3894 5.45756 16.4079 5.4822C16.4176 5.49781 16.4278 5.51029 16.4382 5.52496C16.4479 5.54056 16.4593 5.55307 16.4713 5.56462C16.4901 5.58334 16.5104 5.60175 16.5302 5.61984C16.5551 5.64168 16.5771 5.66476 16.5983 5.68878C16.6153 5.7075 16.6339 5.72746 16.6531 5.74587C16.6753 5.76771 16.6983 5.78769 16.7212 5.80828C16.7458 5.83012 16.7705 5.85291 16.7951 5.87413C16.8284 5.90221 16.8606 5.93246 16.8924 5.96273C16.9345 6.00454 16.977 6.04602 17.021 6.08627C17.0275 6.09251 17.0339 6.09874 17.0404 6.10498C17.0716 6.12994 17.0995 6.15678 17.1155 6.17145C17.1154 6.17135 17.1159 6.17179 17.1155 6.17145C17.1348 6.17769 17.1547 6.18496 17.1737 6.19744C17.2076 6.2224 17.2297 6.25699 17.2476 6.29256C17.3038 6.34311 17.3594 6.39399 17.4159 6.44453C17.4385 6.46325 17.461 6.48479 17.4835 6.50476C17.5054 6.52036 17.526 6.54061 17.5452 6.56027C17.5801 6.59147 17.615 6.62267 17.65 6.65387C17.7401 6.73281 17.8265 6.81488 17.912 6.89787C18.0174 7.00333 18.1243 7.10754 18.2317 7.21138C18.4276 7.32589 18.6288 7.43355 18.8256 7.54702C18.8514 7.56263 18.8753 7.57884 18.9007 7.59444C19.1481 7.31332 19.4046 7.03848 19.6618 6.76466C19.7586 6.66232 19.8561 6.56031 19.9547 6.45953C20.0571 6.32817 20.1596 6.19712 20.2627 6.06623C20.4167 5.89462 20.5365 5.69115 20.7157 5.53705C20.7471 5.50897 20.7802 5.44156 20.817 5.46278C20.8481 5.4815 20.8777 5.50025 20.9067 5.52053C20.9345 5.49245 20.9621 5.46716 20.99 5.44064C21.3363 5.10875 21.7125 4.80289 22.0986 4.50788C22.5361 4.18841 22.9791 3.87547 23.4228 3.56274C23.8021 3.30564 24.1659 3.03094 24.5483 2.77718C24.7917 2.62211 25.0272 2.45762 25.2721 2.30461C25.3867 2.23222 25.5114 2.17703 25.6407 2.12898C25.7127 2.1009 25.7802 2.0862 25.8427 2.07746C25.8723 2.06186 25.904 2.04408 25.9388 2.02847C26.126 1.94517 26.3315 1.90807 26.5368 1.87936C26.7317 1.8544 26.928 1.84346 27.1244 1.83566C27.252 1.82942 27.3797 1.82945 27.5075 1.82633C27.6029 1.82583 27.6985 1.82548 27.794 1.82533C27.8791 1.82533 27.9635 1.82615 28.0484 1.82218C28.1105 1.81906 28.1722 1.81621 28.2344 1.81309ZM33.4837 3.46704C33.5449 3.49512 33.6047 3.52414 33.6881 3.56626C33.7552 3.60027 33.9537 3.70634 33.8867 3.67233C33.6979 3.57654 33.6582 3.55565 33.4837 3.46704ZM17.0406 4.86414C17.087 4.88598 17.131 4.90407 17.1809 4.92903C17.261 4.96866 17.4964 5.09597 17.4167 5.05572C17.2685 4.98052 17.1799 4.93497 17.0406 4.86414ZM16.3739 5.85199C16.3909 5.8913 16.4044 5.93188 16.4187 5.97182C16.4328 5.95934 16.4477 5.94997 16.4635 5.94373C16.4553 5.93437 16.4468 5.925 16.4386 5.91564C16.4169 5.8938 16.3956 5.87258 16.3739 5.85199ZM21.8724 7.1662C21.8377 7.19802 21.8028 7.22954 21.7681 7.26137C21.7875 7.25937 21.8066 7.26046 21.8258 7.26237C21.8325 7.24989 21.8407 7.23425 21.8475 7.22052C21.8566 7.2018 21.8636 7.18429 21.8724 7.1662ZM20.5681 7.36649C20.4552 7.46758 20.3409 7.56808 20.2245 7.66605C20.071 7.79553 19.9202 7.84732 19.7936 7.84763C19.7251 7.92283 19.6556 7.9974 19.5863 8.07197C19.627 8.10348 19.668 8.13498 19.7086 8.1668C19.9472 7.95401 20.1848 7.73999 20.4219 7.52589C20.4598 7.48938 20.4981 7.45353 20.536 7.41734C20.5383 7.40174 20.5513 7.38365 20.5681 7.36649ZM16.8671 7.40301C16.877 7.42173 16.887 7.442 16.8973 7.46166C16.8955 7.44918 16.8938 7.43982 16.8921 7.42672C16.8839 7.41735 16.8753 7.41237 16.8671 7.40301ZM17.5378 7.78907C17.5379 7.78898 17.5375 7.78916 17.5378 7.78907ZM18.0456 7.95523C18.0454 7.95535 18.046 7.95492 18.0456 7.95523ZM20.2595 9.2464C20.3141 9.30755 20.3673 9.37029 20.4202 9.43269C20.4451 9.38495 20.4706 9.33784 20.4953 9.2901C20.416 9.27762 20.3373 9.26512 20.2595 9.2464Z" fill="#232323" fill-opacity="0.997961"/>
</svg>
