<svg width="226" height="58" viewBox="0 0 226 58" fill="none" xmlns="http://www.w3.org/2000/svg">
<path d="M63.864 26.4916C62.1626 26.4916 60.742 27.9912 59.672 31.0147C59.3388 29.2694 58.8828 27.9174 58.3215 26.9095C58.076 26.4916 57.7778 26.3196 57.4796 26.3196C56.8657 26.3196 56.2694 27.057 56.2694 27.942C56.2694 28.2616 56.3396 28.5811 56.5325 28.9007C57.4972 30.5969 58.0233 33.9646 58.1286 39.0531C57.9356 41.118 57.848 43.4287 57.848 45.9607C57.848 47.0177 57.8655 48.1239 57.9006 49.2793C57.9356 50.238 58.4969 50.7542 59.0581 50.7542C59.6019 50.7542 60.1281 50.2871 60.1807 49.353L60.2859 47.6568C60.3912 46.059 60.4262 44.1908 60.4262 42.0275C60.4262 41.1426 60.4262 40.2085 60.4087 39.2252C60.7069 36.1032 61.198 33.6696 61.9171 31.9243C62.5485 30.4002 63.2326 29.6382 63.9517 29.6382C64.7936 29.6382 65.7057 30.646 66.6879 32.6863C67.5824 34.5546 68.1963 37.0619 68.5295 40.233C68.4594 41.4376 68.4418 42.7404 68.4418 44.0924C68.4418 45.7148 68.4769 47.4356 68.5646 49.2793C68.6347 50.2134 69.1785 50.705 69.7222 50.705C70.2484 50.705 70.7745 50.2625 70.8447 49.353C71.0026 47.6323 71.0552 46.1327 71.0552 44.7561C71.0552 43.1337 70.9675 41.6588 70.8272 40.1593C71.0201 36.9882 71.4586 34.0875 72.4759 31.5801C73.1073 30.0315 73.9142 29.2694 74.7736 29.2694C75.5453 29.2694 76.3521 29.9086 77.0888 31.1622C78.2113 33.0796 78.8954 35.9803 78.8954 39.6185C78.8954 42.47 78.3341 45.5182 77.194 48.7384C76.7555 49.9676 77.5273 51 78.2113 51C78.6323 51 79.0357 50.7296 79.2462 50.1642C80.5266 46.5015 81.1755 42.9862 81.1755 39.5939C81.1755 35.2183 80.3336 31.6785 78.9305 29.294C77.7729 27.3029 76.2995 26 74.7385 26C73.9317 26 73.1073 26.3687 72.283 27.1799C71.0728 28.3845 70.1256 30.4002 69.4591 33.2026C68.3892 29.8348 66.4423 26.4916 63.864 26.4916Z" fill="#323232"/>
<path d="M18.6547 54.7521C13.8541 54.2853 11.3852 53.6172 7.77516 51.8081C5.72587 50.7811 4.44196 49.5168 3.29278 47.394C2.6936 46.2871 2.24285 44.9709 1.76931 42.9451C0.837895 38.9607 0.849683 36.2696 1.81922 31.5279C2.25858 29.3793 2.74675 27.6818 3.45168 25.8516C3.73839 25.1071 3.97261 24.4798 3.97215 24.4575C3.97169 24.4357 3.57431 23.9286 3.08904 23.3319C1.58139 21.4778 0.721513 19.6923 0.225078 17.385C-0.037229 16.1657 -0.0785435 13.5739 0.144932 12.3566C0.655084 9.57781 1.98401 7.0155 3.73188 5.44064C6.57746 2.87665 9.74069 2.48183 12.6533 4.32706C14.4527 5.46707 16.4216 7.92446 17.154 9.94469C17.2658 10.2535 17.3939 10.4036 17.5469 10.406C17.6717 10.4075 18.6568 10.2145 19.7359 9.9761C22.4753 9.37096 23.2939 9.296 26.6094 9.3464C30.1038 9.39942 32.4017 9.61244 34.4394 10.0714C35.2726 10.2591 35.9851 10.3708 36.0228 10.3203C36.06 10.2691 36.1474 10.0043 36.2159 9.73144C36.6004 8.19868 38.4535 5.67625 40.0117 4.56443C43.3105 2.21062 47.9706 2.54835 50.6939 5.33861C53.6941 8.41258 55.106 13.7023 54.1055 18.1204C53.6459 20.1499 52.9048 21.5891 51.2402 23.6846L50.2971 24.8718L50.6104 25.3751C51.1479 26.2387 51.8371 27.9092 52.2656 29.3866C52.7705 31.1274 53.4645 34.5235 53.7554 36.6775C54.021 38.644 54.1048 42.1579 53.9193 43.5576C53.563 46.246 52.3664 49.1758 51.0365 50.6155C49.9241 51.8198 47.7421 53.144 46.0133 53.6638C44.981 53.9742 41.6893 54.5942 40.4624 54.7092C39.8514 54.7666 38.9768 54.868 38.5189 54.9347C37.4367 55.0925 20.5597 54.9377 18.6547 54.7521ZM37.5783 51.8476C41.0264 51.5738 44.4365 50.9909 45.9 50.4252C46.783 50.084 48.1959 49.2253 48.9467 48.5735C49.8166 47.8184 50.7909 45.8078 51.2078 43.9081C51.3623 43.2045 51.3877 42.5597 51.3488 40.3124C51.2971 37.2764 51.1257 35.9372 50.347 32.4629C49.6647 29.4191 49.0062 27.7406 47.8833 26.1834C47.6747 25.894 47.4451 25.4548 47.3734 25.2073C47.1434 24.414 47.3635 23.9544 48.9416 21.9665C49.7383 20.9615 50.5901 19.7653 50.8347 19.3081C52.1427 16.8625 52.1467 13.4799 50.8446 10.4196C50.288 9.11103 49.0165 7.48644 48.1384 6.96167C46.8852 6.21298 44.7805 5.94041 43.3074 6.33612C40.9622 6.96608 38.6564 9.60068 38.5257 11.7997C38.4773 12.6119 38.3709 12.9755 38.0682 13.3617C37.6232 13.9292 37.4872 13.9219 33.9979 13.1406C31.3971 12.5583 26.2089 12.2444 23.4148 12.5001C22.0733 12.623 17.9355 13.5194 17.8288 13.7104C17.6594 14.0139 17.1815 14.273 16.8024 14.2671C16.2325 14.2577 15.7117 13.6879 15.3599 12.6876C14.732 10.9019 14.1553 9.79141 13.3493 8.81536C11.9915 7.17107 10.8548 6.45963 9.34395 6.30837C6.9811 6.07197 4.35365 8.19303 3.20607 11.2636C2.7445 12.4986 2.56925 13.5399 2.59172 14.9137C2.63768 17.7115 3.62957 19.9646 5.75174 22.0901C7.20692 23.5477 7.22345 23.7896 6.06332 26.6599C5.26581 28.633 4.82264 30.0936 4.38419 32.194C3.48487 36.5022 3.46106 38.6997 4.27535 42.2458C4.97785 45.3054 6.15332 47.384 7.76123 48.4099C9.37909 49.4424 12.0216 50.4885 14.3651 51.0243C15.4236 51.2663 17.311 51.4867 20.2736 51.7143C22.477 51.8837 35.8304 51.9864 37.5783 51.8476ZM26.0053 39.4472C25.1495 39.1067 24.6846 38.1151 24.8715 37.0286C25.0527 35.9759 25.9865 35.442 27.4518 35.5537C28.0739 35.6011 28.3681 35.6887 28.598 35.8952C29.1373 36.3798 29.3394 36.8092 29.3507 37.4941C29.3639 38.2552 28.9725 38.951 28.3167 39.3354C27.7641 39.6594 26.6712 39.7124 26.0053 39.4472ZM18.2692 38.6752C17.9355 38.2774 17.8822 38.1274 17.8747 37.5672C17.8589 36.3508 18.0459 34.4005 18.2083 34.0963C18.7635 33.0567 19.9523 33.1402 20.4469 34.2535C20.6191 34.6413 20.628 34.8583 20.5319 36.3466C20.3846 38.632 20.1229 39.1581 19.1418 39.1426C18.7362 39.1364 18.5905 39.0583 18.2692 38.6752ZM35.0406 38.9131C34.594 38.4627 34.4454 37.8197 34.3923 36.1092C34.3445 34.5736 34.4364 34.3142 35.1531 33.9585C35.6212 33.7261 36.1634 33.9229 36.5479 34.4647C36.7713 34.7795 36.8445 35.1051 36.979 36.384C37.1181 37.7036 37.1188 37.9917 36.9858 38.3952C36.6886 39.2857 35.6767 39.5549 35.0406 38.9131Z" fill="#323232"/>
<path d="M142.512 39.9562C142.512 38.7262 142.707 37.4015 143.078 36.0532C144.087 32.434 146.528 29.1224 149.908 29.1224C150.598 29.1224 151.341 29.2643 152.119 29.5718C152.243 29.6191 152.366 29.6428 152.473 29.6428C153.127 29.6428 153.553 28.8149 153.553 28.0343C153.553 27.4429 153.322 26.8516 152.774 26.6387C151.73 26.2129 150.739 26 149.766 26C145.343 26 142.229 30.3997 140.92 35.0124C140.46 36.6682 140.212 38.3004 140.212 39.8853C140.212 41.068 140.353 42.2271 140.602 43.3625C141.398 46.9343 143.768 49.4654 147.378 49.4654C148.988 49.4654 150.863 48.945 152.969 47.9278C153.376 47.7386 153.747 47.1709 153.747 46.4376C153.747 45.6097 153.198 44.9474 152.597 44.9474C152.455 44.9474 152.331 44.971 152.19 45.042C150.35 45.9408 148.758 46.3666 147.395 46.3666C144.264 46.3666 142.512 43.8356 142.512 39.9562Z" fill="#323232"/>
<path d="M157.792 44.5038C157.775 45.3318 157.756 46.1833 157.756 47.0585C157.756 47.7918 157.775 48.5251 157.792 49.2821C157.81 50.2283 158.376 50.7014 158.924 50.7014C159.508 50.7014 160.092 50.181 160.092 49.2111V44.5748C160.163 42.1147 160.358 39.8912 160.693 37.9752C161.366 34.0958 162.958 29.4122 165.931 29.4122C167.028 29.4122 168.071 30.0035 169.044 31.139C170.655 33.0077 171.716 36.1301 171.716 40.175C171.716 42.8717 171.185 45.6629 170.106 48.5724C169.663 49.7552 170.46 50.7487 171.132 50.7487C171.557 50.7487 171.964 50.4648 172.158 49.9444C173.396 46.6091 174.016 43.3448 174.016 40.175C174.016 35.0893 172.636 31.2336 170.548 28.8208C169.133 27.165 167.612 26.3371 165.949 26.3371C165.7 26.3371 165.417 26.3607 165.152 26.408C163.1 26.7392 161.366 28.537 160.057 31.5884L160.039 17.4902C160.039 16.4967 159.473 16 158.889 16C158.323 16 157.739 16.4967 157.739 17.4902L157.792 44.5038Z" fill="#323232"/>
<path d="M191.845 35.7823C191.615 32.518 190.66 30.2708 188.926 29.0408C187.953 28.3548 186.909 28 185.794 28C184.91 28 183.99 28.2129 183.034 28.6386C180.54 29.7031 178.665 31.8557 177.443 35.0727C176.612 37.2726 176.188 39.5671 176.188 41.9799C176.188 45.7173 177.019 48.6268 178.452 50.4246C179.248 51.4181 180.38 52.175 181.725 52.175C182.186 52.175 182.662 52.0804 183.176 51.8912C184.007 51.7729 184.803 51.2998 185.582 50.4719C186.856 49.0999 188.059 47.2075 189.192 44.7711C189.209 47.5387 189.404 49.8569 189.775 51.6783C189.934 52.4589 190.377 52.79 190.836 52.79C191.42 52.79 192.04 52.2223 192.04 51.3471C192.04 51.2052 192.023 51.0632 191.987 50.8977C191.651 49.1945 191.474 46.9946 191.474 44.2507C191.474 42.2874 191.562 40.0638 191.739 37.5801C191.845 37.107 191.898 36.7049 191.898 36.3264C191.898 36.1372 191.88 35.9479 191.845 35.7823ZM189.545 35.9952C189.527 36.3264 189.492 36.6576 189.475 36.9651C188.377 41.3412 186.042 45.9775 184.273 47.8462C183.672 48.4849 183.282 48.7924 183.088 48.8161C182.575 48.887 182.203 49.0763 181.743 49.0763C181.07 49.0763 180.469 48.7451 179.938 48.0828C179.089 47.0183 178.487 44.7475 178.487 42.0272C178.487 40.0875 178.842 38.1715 179.584 36.2318C180.469 33.9136 181.849 32.3761 183.742 31.5718C184.52 31.2407 185.228 31.0751 185.865 31.0751C188.041 31.0751 189.333 32.9674 189.545 35.9952Z" fill="#323232"/>
<path d="M211.217 35.7823C210.986 32.518 210.031 30.2708 208.297 29.0408C207.324 28.3548 206.281 28 205.166 28C204.281 28 203.361 28.2129 202.406 28.6386C199.911 29.7031 198.036 31.8557 196.815 35.0727C195.984 37.2726 195.559 39.5671 195.559 41.9799C195.559 45.7173 196.39 48.6268 197.824 50.4246C198.62 51.4181 199.752 52.175 201.097 52.175C201.557 52.175 202.034 52.0804 202.548 51.8912C203.379 51.7729 204.175 51.2998 204.953 50.4719C206.227 49.0999 207.43 47.2075 208.563 44.7711C208.58 47.5387 208.775 49.8569 209.147 51.6783C209.306 52.4589 209.748 52.79 210.208 52.79C210.792 52.79 211.411 52.2223 211.411 51.3471C211.411 51.2052 211.394 51.0632 211.358 50.8977C211.022 49.1945 210.845 46.9946 210.845 44.2507C210.845 42.2874 210.934 40.0638 211.111 37.5801C211.217 37.107 211.269 36.7049 211.269 36.3264C211.269 36.1372 211.252 35.9479 211.217 35.7823ZM208.916 35.9952C208.899 36.3264 208.864 36.6576 208.846 36.9651C207.748 41.3412 205.414 45.9775 203.644 47.8462C203.043 48.4849 202.654 48.7924 202.459 48.8161C201.946 48.887 201.574 49.0763 201.114 49.0763C200.442 49.0763 199.84 48.7451 199.31 48.0828C198.46 47.0183 197.859 44.7475 197.859 42.0272C197.859 40.0875 198.213 38.1715 198.956 36.2318C199.84 33.9136 201.22 32.3761 203.113 31.5718C203.892 31.2407 204.599 31.0751 205.237 31.0751C207.413 31.0751 208.704 32.9674 208.916 35.9952Z" fill="#323232"/>
<path d="M216.841 44.0869C217.974 44.0869 218.398 42.7859 218.398 41.201C218.398 40.8699 218.381 40.5624 218.381 40.2548C218.381 40.1129 218.381 39.9473 218.398 39.8054C218.469 38.1259 218.487 36.4701 218.487 34.8379C218.487 30.4618 218.274 26.3223 217.814 22.3719C217.726 21.6623 217.284 21 216.7 21C216.098 21 215.567 21.7096 215.497 22.5612C215.125 27.4813 214.931 31.6209 214.931 34.9326C214.931 36.7303 214.983 38.2915 215.09 39.6162V40.3495C215.09 42.5967 215.479 44.0869 216.841 44.0869ZM215.019 52.4133C215.019 53.8326 215.497 54.8971 216.382 55.3938C216.594 55.5121 216.806 55.5594 217.001 55.5594C218.203 55.5594 218.805 54.1638 218.805 52.6026C218.805 51.4435 218.487 50.1425 217.832 48.6996C217.637 48.2501 217.266 47.9426 216.771 47.9426C215.638 47.9426 215.019 50.8994 215.019 52.4133Z" fill="#323232"/>
<path d="M223.91 43.0869C225.043 43.0869 225.467 41.7859 225.467 40.201C225.467 39.8699 225.45 39.5624 225.45 39.2548C225.45 39.1129 225.45 38.9473 225.467 38.8054C225.539 37.1259 225.556 35.4701 225.556 33.8379C225.556 29.4618 225.344 25.3223 224.884 21.3719C224.795 20.6623 224.353 20 223.769 20C223.167 20 222.636 20.7096 222.565 21.5612C222.195 26.4813 222 30.6209 222 33.9326C222 35.7303 222.053 37.2915 222.159 38.6162V39.3495C222.159 41.5967 222.548 43.0869 223.91 43.0869ZM222.089 51.4133C222.089 52.8326 222.565 53.8971 223.45 54.3938C223.663 54.5121 223.875 54.5594 224.07 54.5594C225.273 54.5594 225.874 53.1638 225.874 51.6026C225.874 50.4435 225.556 49.1425 224.901 47.6996C224.706 47.2501 224.335 46.9426 223.839 46.9426C222.708 46.9426 222.089 49.8994 222.089 51.4133Z" fill="#323232"/>
<path d="M101.675 53.7521C96.8747 53.2853 94.4053 52.6172 90.7955 50.8081C88.7462 49.7811 87.4624 48.5168 86.3132 46.394C85.7141 45.2871 85.2632 43.9709 84.7898 41.9451C83.8583 37.9607 83.8701 35.2696 84.8397 30.5279C85.279 28.3793 85.7672 26.6818 86.4721 24.8516C86.7588 24.1071 86.993 23.4798 86.9926 23.4575C86.9921 23.4357 86.5947 22.9286 86.1094 22.3319C84.6018 20.4778 83.7419 18.6923 83.2455 16.385C82.9831 15.1657 82.9419 12.5739 83.1653 11.3566C83.6755 8.57781 85.0044 6.0155 86.7523 4.44064C89.5978 1.87665 92.7615 1.48183 95.6736 3.32706C97.4733 4.46707 99.4418 6.92446 100.174 8.94469C100.286 9.25345 100.414 9.40363 100.567 9.40597C100.692 9.40746 101.677 9.2145 102.756 8.9761C105.496 8.37096 106.314 8.296 109.63 8.3464C113.125 8.39942 115.422 8.61244 117.46 9.07137C118.293 9.25912 119.005 9.37078 119.043 9.32026C119.081 9.26911 119.167 9.0043 119.237 8.73144C119.62 7.19868 121.474 4.67625 123.033 3.56443C126.331 1.21062 130.991 1.54835 133.715 4.33861C136.714 7.41258 138.127 12.7023 137.126 17.1204C136.666 19.1499 135.926 20.5891 134.261 22.6846L133.318 23.8718L133.631 24.3751C134.168 25.2387 134.857 26.9092 135.286 28.3866C135.791 30.1274 136.485 33.5235 136.776 35.6775C137.042 37.644 137.125 41.1579 136.939 42.5576C136.583 45.246 135.387 48.1758 134.057 49.6155C132.944 50.8198 130.763 52.144 129.034 52.6638C128.002 52.9742 124.71 53.5942 123.483 53.7092C122.872 53.7666 121.998 53.868 121.539 53.9347C120.457 54.0925 103.58 53.9377 101.675 53.7521ZM120.598 50.8476C124.046 50.5738 127.457 49.9909 128.921 49.4252C129.803 49.084 131.217 48.2253 131.967 47.5735C132.837 46.8184 133.811 44.8078 134.228 42.9081C134.382 42.2045 134.408 41.5597 134.369 39.3124C134.318 36.2764 134.146 34.9372 133.368 31.4629C132.685 28.4191 132.026 26.7406 130.904 25.1834C130.695 24.894 130.466 24.4548 130.394 24.2073C130.164 23.414 130.384 22.9544 131.962 20.9665C132.759 19.9615 133.61 18.7653 133.855 18.3081C135.163 15.8625 135.167 12.4799 133.865 9.41958C133.309 8.11103 132.037 6.48644 131.158 5.96167C129.906 5.21298 127.801 4.94041 126.328 5.33612C123.983 5.96608 121.677 8.60068 121.546 10.7997C121.498 11.6119 121.392 11.9755 121.089 12.3617C120.643 12.9292 120.508 12.9219 117.018 12.1406C114.418 11.5583 109.229 11.2444 106.435 11.5001C105.094 11.623 100.956 12.5194 100.85 12.7104C100.68 13.0139 100.202 13.273 99.8228 13.2671C99.2527 13.2577 98.7325 12.6879 98.3801 11.6876C97.7528 9.90189 97.1754 8.79141 96.3701 7.81536C95.0122 6.17107 93.8749 5.45963 92.3648 5.30837C90.0015 5.07197 87.3741 7.19303 86.2265 10.2636C85.7649 11.4986 85.5897 12.5399 85.6121 13.9137C85.6581 16.7115 86.65 18.9646 88.7722 21.0901C90.2273 22.5477 90.2438 22.7896 89.0838 25.6599C88.2862 27.633 87.8431 29.0936 87.4046 31.194C86.5052 35.5022 86.4814 37.6997 87.2958 41.2458C87.9982 44.3054 89.1737 46.384 90.7816 47.4099C92.3999 48.4424 95.0418 49.4885 97.3857 50.0243C98.4438 50.2663 100.331 50.4867 103.294 50.7143C105.498 50.8837 118.851 50.9864 120.598 50.8476ZM109.026 38.4472C108.17 38.1067 107.705 37.1151 107.892 36.0286C108.073 34.9759 109.007 34.442 110.472 34.5537C111.094 34.6011 111.388 34.6887 111.618 34.8952C112.158 35.3798 112.36 35.8092 112.371 36.4941C112.385 37.2552 111.993 37.951 111.337 38.3354C110.784 38.6594 109.692 38.7124 109.026 38.4472ZM101.29 37.6752C100.956 37.2774 100.903 37.1274 100.895 36.5672C100.879 35.3508 101.066 33.4005 101.229 33.0963C101.784 32.0567 102.973 32.1402 103.467 33.2535C103.64 33.6413 103.648 33.8583 103.552 35.3466C103.405 37.632 103.144 38.1581 102.162 38.1426C101.756 38.1364 101.611 38.0583 101.29 37.6752ZM118.061 37.9131C117.614 37.4627 117.466 36.8197 117.413 35.1092C117.365 33.5736 117.457 33.3142 118.173 32.9585C118.642 32.7261 119.184 32.9229 119.569 33.4647C119.792 33.7795 119.865 34.1051 120 35.384C120.139 36.7036 120.139 36.9917 120.006 37.3952C119.709 38.2857 118.697 38.5549 118.061 37.9131Z" fill="#323232"/>
</svg>
